<?xml version="1.0" encoding="utf-8"?>
<!-- Generator: Adobe Illustrator 27.5.0, SVG Export Plug-In . SVG Version: 6.00 Build 0)  -->
<svg width="430" height="340" viewBox="0 0 430 340" fill="none" xmlns="http://www.w3.org/2000/svg">
	<path d="M197.158 299.611C122.301 299.611 53.238 299.611 39.425 299.611C17.599 299.611 -14.742 267.867 8.279 235.436C31.3 203.006 60.473 185.107 51.922 145.287C43.371 105.467 26.995 65.67 54.028 37.286C89.306 0.244026 179.513 54.235 219.271 34.902C259.028 15.569 330.617 -16.706 373.37 12.235C416.124 41.176 387.374 134.763 395.925 158.844C404.476 182.925 421.637 182.454 428.341 221.483C434.741 258.745 416.973 296.257 387.374 296.257C363.037 296.257 197.158 299.611 197.158 299.611Z" fill="#DBF1FE"/>
	<path d="M195.003 299.611C121.841 299.611 54.341 299.611 40.841 299.611C27.341 299.611 -6.73 267.112 15.77 235.416C38.27 203.72 61.413 187.7 53.056 148.781C44.699 109.863 32.274 76.094 58.694 48.352C93.173 12.148 180.413 53.797 219.27 34.901C258.127 16.005 325.44 -9.545 367.226 18.74C409.012 47.026 380.913 138.494 389.27 162.03C397.627 185.565 414.4 185.105 420.952 223.251C427.207 259.669 409.841 296.332 380.913 296.332C357.127 296.332 195.003 299.611 195.003 299.611Z" fill="#A4D9F7"/>
	<path d="M336.263 156.477C338.253 144.128 329.854 132.503 317.505 130.513C305.155 128.523 293.53 136.921 291.54 149.271C289.55 161.62 297.948 173.245 310.298 175.235C322.648 177.226 334.272 168.827 336.263 156.477Z" fill="#FF6110"/>
	<path d="M327.906 166.907C335.655 159.158 335.655 146.596 327.906 138.848C320.158 131.099 307.596 131.099 299.847 138.848C292.099 146.596 292.099 159.158 299.847 166.907C307.596 174.655 320.158 174.655 327.906 166.907Z" fill="#FFD36B"/>
	<path d="M312.669 167.73V164.13C310.601 164.094 308.462 163.453 307.214 162.561L308.071 160.173C309.354 161.029 311.208 161.706 313.204 161.706C315.736 161.706 317.446 160.244 317.446 158.213C317.446 156.252 316.056 155.04 313.417 153.971C309.781 152.545 307.535 150.905 307.535 147.803C307.535 144.844 309.639 142.598 312.918 142.063V138.462H315.129V141.92C317.267 141.992 318.729 142.562 319.763 143.168L318.872 145.521C318.124 145.093 316.661 144.309 314.379 144.309C311.634 144.309 310.601 145.949 310.601 147.375C310.601 149.228 311.92 150.155 315.022 151.439C318.693 152.936 320.547 154.79 320.547 157.963C320.547 160.779 318.586 163.417 314.915 164.024V167.731H312.669V167.73Z" fill="#FF6110"/>
	<path d="M365.211 121.278C369.295 111.35 364.557 99.991 354.629 95.9073C344.701 91.8236 333.343 96.5613 329.259 106.489C325.175 116.417 329.913 127.776 339.841 131.86C349.769 135.944 361.128 131.206 365.211 121.278Z" fill="#FF6110"/>
	<path d="M359.284 125.926C365.934 119.276 365.934 108.494 359.284 101.845C352.634 95.1949 341.853 95.1949 335.203 101.845C328.553 108.494 328.553 119.276 335.203 125.926C341.853 132.575 352.634 132.575 359.284 125.926Z" fill="#FFD36B"/>
	<path d="M346.207 126.631V123.541C344.432 123.51 342.596 122.96 341.526 122.194L342.261 120.144C343.362 120.878 344.953 121.46 346.666 121.46C348.839 121.46 350.307 120.206 350.307 118.462C350.307 116.779 349.114 115.739 346.85 114.821C343.729 113.597 341.802 112.19 341.802 109.528C341.802 106.989 343.608 105.061 346.422 104.602V101.512H348.32V104.479C350.155 104.54 351.409 105.03 352.297 105.55L351.533 107.57C350.891 107.203 349.635 106.53 347.677 106.53C345.322 106.53 344.434 107.938 344.434 109.162C344.434 110.753 345.566 111.548 348.228 112.65C351.379 113.935 352.97 115.526 352.97 118.249C352.97 120.666 351.287 122.93 348.136 123.45V126.632H346.207V126.631Z" fill="#FF6110"/>
	<path d="M334.562 70.3385C336.028 61.2623 329.858 52.7166 320.782 51.2511C311.706 49.7856 303.16 55.9553 301.695 65.0315C300.229 74.1077 306.399 82.6534 315.475 84.1189C324.551 85.5844 333.097 79.4147 334.562 70.3385Z" fill="#FF6110"/>
	<path d="M329.69 76.529C334.583 70.1317 333.364 60.9793 326.966 56.0866C320.569 51.1938 311.417 52.4134 306.524 58.8107C301.631 65.2079 302.851 74.3603 309.248 79.2531C315.645 84.1459 324.798 82.9263 329.69 76.529Z" fill="#FFD36B"/>
	<path d="M317.224 78.589V75.943C315.704 75.917 314.132 75.445 313.215 74.79L313.845 73.034C314.788 73.663 316.151 74.161 317.618 74.161C319.479 74.161 320.736 73.087 320.736 71.593C320.736 70.152 319.714 69.261 317.775 68.475C315.102 67.427 313.451 66.222 313.451 63.942C313.451 61.767 314.998 60.116 317.408 59.723V57.077H319.033V59.618C320.605 59.671 321.679 60.09 322.439 60.535L321.785 62.265C321.235 61.951 320.16 61.374 318.483 61.374C316.466 61.374 315.706 62.58 315.706 63.628C315.706 64.99 316.676 65.672 318.955 66.615C321.654 67.715 323.016 69.078 323.016 71.41C323.016 73.48 321.575 75.419 318.876 75.864V78.589H317.224Z" fill="#FF6110"/>
	<path d="M201.488 147.65L201.271 196.674L201.217 210.679L201 259.693C201 286.131 189.707 307.687 175.56 308.674C175.224 308.696 174.887 308.707 174.551 308.707H91.625V308.696C98.601 308.414 104.903 303.131 109.547 294.701C114.451 285.805 117.488 273.405 117.488 259.693L117.542 162.165L117.553 147.65C117.553 120.583 134.965 98.637 156.456 98.637C167.055 98.637 176.656 103.985 183.686 112.642C190.889 121.538 195.359 133.938 195.359 147.65H201.488Z" fill="#0496BE"/>
	<path d="M117.546 162.165L117.535 186.813L117.524 193.04V206.991L117.513 214.715V228.655L117.502 234.893V248.833L117.491 256.557V259.692C117.491 260.733 117.469 261.764 117.437 262.784C117.35 265.42 117.155 267.991 116.84 270.497C116.59 272.634 116.254 274.717 115.853 276.735C115.311 279.425 114.649 282.007 113.868 284.448C113.185 286.639 112.393 288.722 111.525 290.675C110.918 292.085 110.256 293.43 109.551 294.7C108.835 296.013 108.065 297.249 107.273 298.399C105.548 300.883 103.66 302.988 101.632 304.626C98.562 307.11 95.177 308.553 91.63 308.694C91.435 308.705 91.239 308.705 91.044 308.705C76.431 308.705 64.595 286.758 64.595 259.692V162.164L117.546 162.165Z" fill="#DBF1FE"/>
	<path d="M117.535 186.813L117.524 193.04H77.569V186.813H117.535Z" fill="#05609A"/>
	<path d="M117.524 200.764H77.569V206.991H117.524V200.764Z" fill="#05609A"/>
	<path d="M117.513 214.715H77.569V220.942H117.513V214.715Z" fill="#05609A"/>
	<path d="M117.514 228.655L117.503 234.893H77.569V228.655H117.514Z" fill="#05609A"/>
	<path d="M117.502 242.607H77.569V248.834H117.502V242.607Z" fill="#05609A"/>
	<path d="M117.492 256.558V259.693C117.492 260.734 117.47 261.765 117.438 262.785H77.57V256.558H117.492Z" fill="#05609A"/>
	<path d="M116.841 270.498C116.591 272.635 116.255 274.718 115.854 276.736H79.219C78.807 274.718 78.47 272.635 78.232 270.498H116.841Z" fill="#05609A"/>
	<path d="M113.868 284.449C113.185 286.64 112.393 288.723 111.525 290.676H83.525C82.657 288.723 81.876 286.64 81.193 284.449H113.868Z" fill="#05609A"/>
	<path d="M107.273 298.401C105.548 300.885 103.66 302.99 101.632 304.628H93.441C91.412 302.99 89.514 300.885 87.8 298.401H107.273Z" fill="#05609A"/>
	<path d="M279.293 147.65H195.358C195.358 133.938 190.888 121.538 183.685 112.642C176.655 103.985 167.054 98.637 156.455 98.637H240.39C261.881 98.636 279.293 120.583 279.293 147.65Z" fill="#DBF1FE"/>
	<path d="M256.83 107.489H184.612C181.65 104.864 178.374 102.759 174.881 101.251H247.121C250.603 102.759 253.868 104.863 256.83 107.489Z" fill="#05609A"/>
	<path d="M267.407 121.429H195.178C194.082 119.227 192.835 117.144 191.468 115.202H263.697C265.064 117.144 266.301 119.227 267.407 121.429Z" fill="#05609A"/>
	<path d="M293.31 139.988V336.938H173.307C172.484 336.938 171.67 336.879 170.876 336.771C170.209 336.683 169.553 336.555 168.906 336.399C161.055 334.429 155.234 327.323 155.234 318.865V234.91C139.278 224.492 128.742 206.478 128.742 185.994C128.742 157.659 148.912 134.029 175.688 128.698C178.04 128.228 180.441 127.904 182.882 127.728C184.303 127.62 185.724 127.571 187.165 127.571H280.891C287.753 127.57 293.31 133.128 293.31 139.988Z" fill="#05609A"/>
	<path d="M294.572 339.941H183.274C180.907 339.941 178.988 338.022 178.988 335.655V140.56C178.988 138.193 180.907 136.274 183.274 136.274H294.571C296.938 136.274 298.857 138.193 298.857 140.56V335.655C298.857 338.022 296.939 339.941 294.572 339.941Z" fill="#051445"/>
	<path d="M293.31 147.655H184.54V319.434H293.31V147.655Z" fill="#02CDCD"/>
	<path d="M238.368 336.938C242.373 336.938 245.619 333.692 245.619 329.687C245.619 325.682 242.373 322.436 238.368 322.436C234.363 322.436 231.117 325.682 231.117 329.687C231.117 333.692 234.363 336.938 238.368 336.938Z" fill="#05609A"/>
	<path d="M251.19 144.009H226.657C225.769 144.009 225.05 143.289 225.05 142.402V141.454C225.05 140.566 225.769 139.847 226.657 139.847H251.19C252.078 139.847 252.797 140.567 252.797 141.454V142.402C252.797 143.29 252.077 144.009 251.19 144.009Z" fill="#05609A"/>
	<path d="M279.556 179.69H279.03C277.319 179.69 275.933 181.077 275.933 182.787V284.301C275.933 286.012 277.32 287.399 279.03 287.399H279.556C281.267 287.399 282.654 286.012 282.654 284.301V182.787C282.654 181.076 281.267 179.69 279.556 179.69Z" fill="#05609A"/>
	<path d="M262.595 253.71H215.251L220.239 212.109H257.607L262.595 253.71Z" fill="#ECF0FB"/>
	<path d="M248.259 212.109H246.957C246.957 206.203 243.364 201.424 238.923 201.424C234.482 201.424 230.889 206.203 230.889 212.109H229.575C229.575 205.249 233.76 199.692 238.923 199.692C244.085 199.692 248.259 205.25 248.259 212.109Z" fill="#051445"/>
	<path d="M215.251 253.71L238.923 248.522L262.595 253.71H215.251Z" fill="#BDD2FF"/>
	<mask id="mask0_237_9" style="mask-type:luminance" maskUnits="userSpaceOnUse" x="282" y="191" width="111" height="85">
		<path d="M392.599 191.613H282.654V275.475H392.599V191.613Z" fill="white"/>
	</mask>
	<g mask="url(#mask0_237_9)">
		<path d="M254.501 199.519V267.568C254.501 271.934 258.041 275.474 262.407 275.474H381.166C385.532 275.474 389.072 271.934 389.072 267.568V199.519C389.072 195.152 385.532 191.613 381.166 191.613H262.407C258.041 191.613 254.501 195.153 254.501 199.519Z" fill="#303449"/>
		<path d="M384.408 240.125H355.044V248.031H384.408V240.125Z" fill="white"/>
		<path d="M352.448 240.125H323.084V248.031H352.448V240.125Z" fill="white"/>
		<path d="M320.488 240.125H291.124V248.031H320.488V240.125Z" fill="white"/>
		<path d="M288.528 240.125H259.164V248.031H288.528V240.125Z" fill="white"/>
		<path d="M374.572 218.766H355.476C353.523 218.766 351.94 217.183 351.94 215.23V205.466C351.94 203.513 353.523 201.93 355.476 201.93H374.572C376.525 201.93 378.108 203.513 378.108 205.466V215.23C378.108 217.183 376.525 218.766 374.572 218.766Z" fill="#FEB313"/>
	</g>
	<path d="M182.883 127.727C180.443 127.903 178.041 128.227 175.689 128.697C171.582 131.686 168.907 136.538 168.907 141.997V336.398C169.554 336.555 170.21 336.682 170.877 336.77C170.867 336.701 170.867 336.643 170.867 336.574V141.997C170.867 134.852 176.071 128.894 182.883 127.727Z" fill="#051445"/>
	<path d="M93.631 126.57C103.384 126.57 111.29 118.664 111.29 108.911C111.29 99.1582 103.384 91.252 93.631 91.252C83.8782 91.252 75.972 99.1582 75.972 108.911C75.972 118.664 83.8782 126.57 93.631 126.57Z" fill="#0496BE"/>
	<path d="M93.008 117.179L83.664 106.451L87.624 103.002L93.472 109.717L110.982 94.049L114.484 97.964L93.008 117.179Z" fill="#DBF1FE"/>
	<path d="M93.631 74.736C103.384 74.736 111.29 66.8298 111.29 57.077C111.29 47.3242 103.384 39.418 93.631 39.418C83.8782 39.418 75.972 47.3242 75.972 57.077C75.972 66.8298 83.8782 74.736 93.631 74.736Z" fill="#0496BE"/>
	<path d="M93.008 65.345L83.664 54.617L87.624 51.168L93.472 57.883L110.982 42.215L114.484 46.13L93.008 65.345Z" fill="#DBF1FE"/>
</svg>
